# xmcd
#
# Track frame offsets:
#	150
#	16419
#	33477
#	53258
#	75788
#	100316
#	126444
#	146120
#	168428
#	186310
#	206278
#	242815
#	260742
#	269850
#	289055
#	312163
#
# Disc length: 4412 seconds
#
# Revision: 2
# Processed by: cddbd v1.5.2PL0 Copyright (c) Steve Scherf et al.
# Submitted via: EasyCDDAExtractor 10.0.2.1
#
DISCID=e7113a10
DTITLE=Cross Canadian Ragweed - Back To Tulsa... Live And Loud At Cain's Ballr
DTITLE=oom - Disc 1
DYEAR=2006
DGENRE=Country
TTITLE0=Dimebag
TTITLE1=Number
TTITLE2=Lonely Girl
TTITLE3=Late Last Night
TTITLE4=Final Curtain
TTITLE5=Sister
TTITLE6=Constantly
TTITLE7=Don't Need You
TTITLE8=Fightin' For
TTITLE9=When It All Goes Down (with Wade Bowen)
TTITLE10=Anywhere But Here
TTITLE11=Daddy's At Home
TTITLE12=The Needle And The Damage Done
TTITLE13=When Will It End (with Stoney LaRue)
TTITLE14=Back Around
TTITLE15=Brooklyn Kid
EXTD=YEAR: 2006
EXTT0=
EXTT1=
EXTT2=
EXTT3=
EXTT4=
EXTT5=
EXTT6=
EXTT7=
EXTT8=
EXTT9=
EXTT10=
EXTT11=
EXTT12=
EXTT13=
EXTT14=
EXTT15=
PLAYORDER=
